inDegrees=no
num_controls=7
num_derivatives=13
num_iterations=85
num_multipliers=7
num_parameters=0
num_slacks=7
num_states=26
objective=0.470009
objective_accelerations=0.064487
objective_balance=0.002133
objective_effort=0.020510
objective_height=0.373377
objective_ligament=0.009502
solver_duration=1158.824284
status=Solve_Succeeded
success=true
DataType=double
version=3
OpenSimVersion=4.5
endheader
time	/jointset/ground_pelvis/pelvis_tilt/value	/jointset/ground_pelvis/pelvis_tx/value	/jointset/ground_pelvis/pelvis_ty/value	/jointset/hip_l/hip_flexion_l/value	/jointset/hip_l/hip_adduction_l/value	/jointset/hip_l/hip_rotation_l/value	/jointset/back/lumbar_extension/value	/jointset/patellofemoral_l/patellar_flexion_l/value	/jointset/knee_l/knee_flexion_l/value	/jointset/knee_l/knee_adduction_l/value	/jointset/knee_l/knee_rotation_l/value	/jointset/ankle_l/ankle_angle_l/value	/jointset/subtalar_l/subtalar_angle_l/value	/jointset/ground_pelvis/pelvis_tilt/speed	/jointset/ground_pelvis/pelvis_tx/speed	/jointset/ground_pelvis/pelvis_ty/speed	/jointset/hip_l/hip_flexion_l/speed	/jointset/hip_l/hip_adduction_l/speed	/jointset/hip_l/hip_rotation_l/speed	/jointset/back/lumbar_extension/speed	/jointset/patellofemoral_l/patellar_flexion_l/speed	/jointset/knee_l/knee_flexion_l/speed	/jointset/knee_l/knee_adduction_l/speed	/jointset/knee_l/knee_rotation_l/speed	/jointset/ankle_l/ankle_angle_l/speed	/jointset/subtalar_l/subtalar_angle_l/speed	/forceset/tau_hip_flexion_l	/forceset/tau_hip_adduction_l	/forceset/tau_hip_rotation_l	/forceset/tau_knee_flexion_l	/forceset/tau_ankle_angle_l	/forceset/tau_subtalar_angle_l	/forceset/tau_lumbar_extension	lambda_cid13_p0	lambda_cid13_p1	lambda_cid13_p2	lambda_cid13_p3	lambda_cid13_p4	lambda_cid13_p5	lambda_cid14_p0	/jointset/ground_pelvis/pelvis_tilt/accel	/jointset/ground_pelvis/pelvis_tx/accel	/jointset/ground_pelvis/pelvis_ty/accel	/jointset/hip_l/hip_flexion_l/accel	/jointset/hip_l/hip_adduction_l/accel	/jointset/hip_l/hip_rotation_l/accel	/jointset/back/lumbar_extension/accel	/jointset/patellofemoral_l/patellar_flexion_l/accel	/jointset/knee_l/knee_flexion_l/accel	/jointset/knee_l/knee_adduction_l/accel	/jointset/knee_l/knee_rotation_l/accel	/jointset/ankle_l/ankle_angle_l/accel	/jointset/subtalar_l/subtalar_angle_l/accel	gamma_cid13_p0	gamma_cid13_p1	gamma_cid13_p2	gamma_cid13_p3	gamma_cid13_p4	gamma_cid13_p5	gamma_cid14_p0
1.5	-0.5544912934667525	-0.04316559806758678	0.7886061526967111	1.213703690136871	-0.3456063447904204	-0.1145984094839174	-0.3417100607154969	0.5799704750071767	0.5799704750071487	-0.05280128864655007	-0.1741773656327288	0.01785466645716857	0.08185815690192451	1.070004581529036	0.5014877242959388	0.4835572294898963	-2.83690308515207	-0.002951076041983853	-0.5255209199462543	0.5992146365421297	-1.569292913743211	-1.569292913743132	-0.2126062693313952	0.0001939715238360147	0.08753644103161655	0.02940056651690648	-0.2012713642564459	0.0311842953100436	0.00593054360135594	-0.06974374265538731	0.04309237143085213	-0.004047109480077317	0.1645160076764478	-10.79724727342248	1.346160703774041	2.133834000385403	-7.601318288262865	-429.761979352174	-48.10760797933587	-19.69395296933789	0.8007122220172892	0.8657490046451839	-0.6174628103854886	-1.741992686631582	0.2695047399546542	-0.2996023895796786	1.789187253494498	-0.6464242298528589	-0.6464242298528831	-0.3163448312412287	0.1651809258976157	0.2424325645786821	0.3553921098183938	-1.602503216299656e-08	1.472136025157812e-06	1.46907603591892e-07	2.965404296072291e-07	2.677591688727326e-07	-1.537801433496572e-07	2.265535561964224e-07
1.51	-0.5437518818929259	-0.03810807486906947	0.7934098163510553	1.185250244245118	-0.3456235187517568	-0.1198697800631616	-0.3356305494957691	0.5642473689306229	0.5642473689305045	-0.05494447089204579	-0.1741695586799994	0.01874193654803997	0.0821687198970453	1.077708710213296	0.5099390220235258	0.4770642905323063	-2.853375499122603	-0.0005050614567969525	-0.5286123287130862	0.6165835435482016	-1.575100415799192	-1.575100415799168	-0.2160927869360572	0.001431271858718824	0.08990997947300886	0.03268712369359995	-0.1943859138457566	0.03054351345656661	0.006287074506473248	-0.06785811371223965	0.03951668721046454	-0.004847536118456956	0.1593615770970993	-11.7825356076101	1.659796626587708	2.319711454488737	-6.740859310798942	-425.7183383840017	-47.84073657009618	-20.23086577008159	0.7299269740797667	0.8231982637322059	-0.6818405281184156	-1.538256251303826	0.2286643912067658	-0.2926207205165638	1.695132846050919	-0.5137745434944987	-0.5137745435028113	-0.3738878452683836	0.1125494207423345	0.2337198603106272	0.3112837337920816	-2.833321046899993e-08	1.523105023623174e-06	1.829798866668928e-07	3.058019725260906e-07	2.578112973806518e-07	-1.230397367828389e-07	2.229396718307153e-07
1.52	-0.5329404962757764	-0.03296836307189324	0.798145224397888	1.156644396113844	-0.3456169296525639	-0.1251678068500995	-0.329380471121605	0.5484730155634893	0.5484730155633065	-0.05712433483762253	-0.1741474697572706	0.01965272309860296	0.08251134770637243	1.084399390195539	0.517925444027724	0.4699061079876487	-2.867383533054727	0.00180153606461299	-0.5308521614911761	0.6333280674297598	-1.57954237185613	-1.579542371856162	-0.2199426093482926	0.003050365531965667	0.09223973297004369	0.03581352935818941	-0.1875004634350496	0.02990273160321019	0.006643605411727118	-0.06597248476907971	0.03594100299011416	-0.005647962756705768	0.1542071465177334	-12.77204870936749	1.976457500967198	2.502496693745587	-5.857925227118209	-421.7307863263424	-47.60100469644478	-20.74719184192971	0.5980224816139834	0.7727738599673667	-0.7505115277990358	-1.249116678949636	0.2416213271991572	-0.1292871918314754	1.6643106285917	-0.3733150300443511	-0.3733150300443532	-0.389005792755991	0.2415395935701439	0.2336755757071369	0.3233618073974853	-1.025050303855842e-08	1.505584319863122e-06	1.407114323805735e-08	2.939710910052229e-07	3.0723774805441e-07	-1.023944524534064e-07	2.418335223508186e-07
1.53	-0.5220673268709585	-0.02775114163139009	0.8028058620576154	1.127910541001424	-0.3455880304281806	-0.1304842888015857	-0.3229663664448106	0.5326607234332126	0.5326607234328441	-0.05934451604071711	-0.1741074245200084	0.0205864822221289	0.08288434853044399	1.090040861475976	0.5254354133010368	0.4621214600434882	-2.87895436923681	0.004003408592393498	-0.5324409152514875	0.649377449504656	-1.582696556793056	-1.582696556793057	-0.2240003630904074	0.004940564506149432	0.09451440777967623	0.03881438429982528	-0.1804763681130744	0.02901723078453023	0.006933358407430637	-0.0645787237085213	0.03312396880666114	-0.00652908648080002	0.1489421585449993	-13.53519702345528	2.314128955792952	2.652692049498823	-5.164893279307317	-418.0054009901401	-47.40520795095197	-21.23999778911429	0.5181962001388427	0.7276421247397916	-0.8073400183021375	-1.046059907230622	0.2130604308145008	-0.1729275850231131	1.557939233480175	-0.2536071234578965	-0.2536071234532775	-0.3999388089536423	0.1598723288826701	0.2247500437315505	0.2924629414163868	4.012252048685543e-08	1.415293307488568e-06	-3.726299408511017e-07	2.597295085171431e-07	4.197494160293716e-07	-9.247523550119628e-08	2.846418411870952e-07
1.54	-0.5111435454035554	-0.02246131376540862	0.8073856735197847	1.099073978963287	-0.345536394435465	-0.1358165099141027	-0.3163952304999633	0.5168234620737867	0.516823462073603	-0.06160243050942536	-0.1740490548374564	0.02154306541577902	0.08328816102470557	1.094521802711651	0.5324467291233862	0.4537408684760593	-2.887924918194601	0.006348889730100659	-0.5339999936875059	0.6647343210412079	-1.584536217647632	-1.584536217647601	-0.2274892625931175	0.006715254661973798	0.09680454699491567	0.04197586339624825	-0.1734522727914007	0.02813172996563329	0.00722311140570017	-0.0631849626481161	0.03030693462312144	-0.007410210205194736	0.1436771705720396	-14.30260263279721	2.653112489586002	2.802031415608323	-4.454025881239357	-414.3371752962156	-47.26249725630989	-21.70685002388086	0.3659164726615426	0.6730431697746425	-0.8697002524527176	-0.7290592340912657	0.2703430491842357	-0.1233521269731279	1.525808520922781	-0.1104102135741355	-0.1104102135741327	-0.2752349448751585	0.2184378298979936	0.2367684568284559	0.3554866383548008	7.342494884419991e-08	1.375844743703051e-06	-6.262234030738857e-07	2.358848984787828e-07	5.053157970814589e-07	-7.057339939870737e-08	3.138291685935517e-07
1.55	-0.5001806382763369	-0.01710396322936099	0.8118788080163865	1.070160432539468	-0.3454609906670405	-0.1411639367328711	-0.3096741390268296	0.5009741456217164	0.5009741456217861	-0.06389337249948034	-0.1739735629010365	0.02252236450037161	0.08372389135302177	1.097872572564417	0.5389298059693448	0.4447949785706941	-2.894355384499013	0.008728252603796385	-0.5354716493851148	0.6793591323974306	-1.585107261796617	-1.585107261796487	-0.2306627281111881	0.008349610518747226	0.09904436318815524	0.0451643256416512	-0.1667129025188529	0.02724560683867215	0.007495135073590391	-0.0615957971066908	0.02721789806831136	-0.008438295978663768	0.1385851143889066	-15.18425555154497	3.064824372916649	2.952455571793771	-3.627731228905192	-410.9591834297643	-46.99354833671187	-22.1484112981852	0.2916316354918523	0.6219476099165179	-0.9205731754522225	-0.5356509036315145	0.2210293939037358	-0.1567433859331133	1.412091264921129	0.00245316504567967	0.002453165060451262	-0.3327185974947847	0.130698773255909	0.2159923052236531	0.2995155407933552	8.70590827687699e-08	1.394975522857074e-06	-7.264537357549852e-07	2.240194088716201e-07	5.598365214615408e-07	-3.486550210133273e-08	3.273227450047813e-07
1.56	-0.4891898285718149	-0.01168458039127211	0.8162797756507586	1.041195459337594	-0.3453619339724026	-0.1465256143275551	-0.3028105446757449	0.4851256996643535	0.4851256996645353	-0.06621491239332015	-0.1738827745439943	0.02352374256782666	0.08419130420842368	1.100102318173491	0.5448531895316363	0.4353074960302135	-2.898210273804052	0.01107947497515478	-0.5368501488738406	0.6932348966316101	-1.584362118721352	-1.584362118721124	-0.2336088433181187	0.009774538763089889	0.1012203435674716	0.04831236881347222	-0.159973532246337	0.02635948371175234	0.007767158740786969	-0.06000663156524959	0.02412886151351945	-0.009466381752069835	0.1334930582057357	-16.06886911461903	3.477218843697746	3.102583894077058	-2.792860110275262	-407.6205223125524	-46.78054113477886	-22.56453129599926	0.1417116239232787	0.5611045130412122	-0.9780187794757755	-0.2139438342166002	0.2647149487166812	-0.1047208851967326	1.375999096514015	0.1528272312756566	0.1528272312756498	-0.2297648826472697	0.1765523074115656	0.2240012940437697	0.3474028236382954	9.182101012784059e-08	1.432620989350982e-06	-7.726585250626576e-07	2.187441720233044e-07	5.967748906068784e-07	2.616320009609021e-09	3.348337930588281e-07
1.57	-0.4781822182535644	-0.006208804613315675	0.8205832638934009	1.012204735598497	-0.3452395248723508	-0.1518999323870405	-0.2958119228937891	0.4692913840150832	0.469291384015377	-0.06856507118696092	-0.1737781848853174	0.02454663127723817	0.08468998593676656	1.101242093196777	0.5502043030133235	0.4253086197188385	-2.899502362038991	0.0133884206818908	-0.5379060278443637	0.706367478055779	-1.582258812922613	-1.5822588129225	-0.2364259994358418	0.01118227348646557	0.1033580660624422	0.05140977698537341	-0.1535505423116556	0.02528122151262501	0.008026656848557521	-0.0583248865397061	0.02094576541855558	-0.01046995924346618	0.1286270631164017	-17.00147383082689	3.884952135803744	3.256218954410088	-1.949290996789934	-404.6409119236329	-46.6139280082901	-22.95479560772836	0.0734899302522673	0.5075099912673717	-1.022927904081522	-0.02198663458328834	0.2117089153681997	-0.089638474422075	1.263590409955437	0.2753450060238058	0.2753450060064346	-0.3079111865539985	0.1285138989038991	0.2088001520995046	0.2886266146259348	8.549267928003724e-08	1.493409815019747e-06	-7.513313851535472e-07	2.217067511235477e-07	6.117353157087859e-07	4.231554813750965e-08	3.348666806663965e-07
1.58	-0.4671685342873357	-0.0006824386554358377	0.8247843422035058	0.9832140619137504	-0.3450944814084946	-0.1572815326505279	-0.2886856347486743	0.4534853539743428	0.4534853539744406	-0.07094344558412606	-0.1736583919102981	0.02559092569657474	0.08521918510696	1.101317047768888	0.5549712255163171	0.4148255095228059	-2.898200262931983	0.01560634773729512	-0.5383065896725379	0.7187681692634256	-1.578704997049845	-1.578704997049847	-0.2392519639623244	0.01281520197398211	0.105501485552446	0.05441585718367498	-0.1471275523770995	0.02420295931342519	0.008286154954819628	-0.05664314151413277	0.01776266932358164	-0.01147353673492319	0.1237610680269787	-17.9366288338085	4.2937092985592	3.409032302571136	-1.099871770203707	-401.6950583721882	-46.49868309972772	-23.31905807077332	-0.07125246631172683	0.4442663173024838	-1.074865556407286	0.3048936341727866	0.2465112184503113	0.02634254327292413	1.229621053209467	0.4429292460815583	0.4429292460815595	-0.2315265643992895	0.2215910602395881	0.2251406930503649	0.329137228918282	7.846960253729544e-08	1.554401404793836e-06	-7.222780969120205e-07	2.239420336383371e-07	6.249031319914574e-07	8.050154899172017e-08	3.336957361751558e-07
1.59	-0.4561595420124496	0.004888602744724843	0.8288783330608338	0.9542493609947474	-0.3449272473829792	-0.1626640452010297	-0.2814390129587223	0.4377217488346668	0.4377217488347949	-0.07334919263823232	-0.1735208547872309	0.02665660987659264	0.08577845021853507	1.100295214378208	0.5591326279283501	0.4039069996430129	-2.894302631408109	0.01786335375532082	-0.5380741197013095	0.730429647003122	-1.573797070409868	-1.57379707040983	-0.2418248482846265	0.01477392063718078	0.1076333818014056	0.05746038843899717	-0.1408835734133879	0.02320230047792363	0.008508490652030657	-0.05513624924921052	0.01483815919475952	-0.01273042235561797	0.1190226540385703	-18.83169338026401	4.809952984271063	3.539574614870518	-0.2688232510061223	-399.2402625436538	-46.24390160578021	-23.65740420911757	-0.1455563664459788	0.3864584018224508	-1.110064641515007	0.4978234212984065	0.2185134714414301	0.04022687909804457	1.115429875933526	0.5475025987222482	0.5475025987282192	-0.2590146020314661	0.1950765837114977	0.2069635019506728	0.2954125938519111	7.050365636570866e-08	1.615668174425151e-06	-6.827393216479298e-07	2.251902707871536e-07	6.356381220194514e-07	1.166338842602085e-07	3.308910195498172e-07
